<mxfile host="app.diagrams.net" modified="2022-05-26T06:40:00.734Z" agent="5.0 (Windows NT 10.0; Win64; x64) AppleWebKit/537.36 (KHTML, like Gecko) Chrome/101.0.4951.64 Safari/537.36 Edg/101.0.1210.53" etag="jR2NKmz4C6iE2TvT1S1X" version="18.1.2" type="github">
  <diagram id="ZEJSZ72GKcJqiA7wCpoM" name="Page-1">
    <mxGraphModel dx="965" dy="629" grid="1" gridSize="10" guides="1" tooltips="1" connect="1" arrows="1" fold="1" page="1" pageScale="1" pageWidth="827" pageHeight="1169" math="0" shadow="0">
      <root>
        <mxCell id="0" />
        <mxCell id="1" parent="0" />
        <mxCell id="0wou0YqCdkY1BN9xeyLt-3" value="" style="edgeStyle=orthogonalEdgeStyle;rounded=0;orthogonalLoop=1;jettySize=auto;html=1;" edge="1" parent="1" source="0wou0YqCdkY1BN9xeyLt-1" target="0wou0YqCdkY1BN9xeyLt-2">
          <mxGeometry relative="1" as="geometry" />
        </mxCell>
        <mxCell id="0wou0YqCdkY1BN9xeyLt-1" value="" style="rounded=0;whiteSpace=wrap;html=1;" vertex="1" parent="1">
          <mxGeometry x="350" y="290" width="120" height="60" as="geometry" />
        </mxCell>
        <mxCell id="0wou0YqCdkY1BN9xeyLt-2" value="" style="rounded=0;whiteSpace=wrap;html=1;" vertex="1" parent="1">
          <mxGeometry x="240" y="440" width="120" height="60" as="geometry" />
        </mxCell>
      </root>
    </mxGraphModel>
  </diagram>
</mxfile>
